<?xml version="1.0" encoding="UTF-8" standalone="no"?>
<!DOCTYPE svg PUBLIC "-//W3C//DTD SVG 1.1//EN" "http://www.w3.org/Graphics/SVG/1.1/DTD/svg11.dtd">
<svg width="100%" height="100%" viewBox="0 0 3840 2612" version="1.1" xmlns="http://www.w3.org/2000/svg" xmlns:xlink="http://www.w3.org/1999/xlink" xml:space="preserve" xmlns:serif="http://www.serif.com/" style="fill-rule:evenodd;clip-rule:evenodd;stroke-linejoin:round;stroke-miterlimit:2;">
    <g id="Fondo" transform="matrix(3.75,0,0,3.75,0,0)">
        <path d="M300.763,136.475C305.035,99.002 289.523,76.961 298.518,76.985C304.133,77 305.938,78.902 306.037,75.467C306.448,61.205 304.476,59.089 308.481,59.121C313.291,59.16 313.235,59.495 368.523,62.348C373.421,62.6 370.274,71.144 382.198,79.826C384.475,81.483 397.411,95.239 400.858,100.21C403.894,104.589 410.014,99.324 416,116.335C418.667,123.916 420.245,123.397 420.725,131.482C421.232,140.037 423.151,139.3 438.726,156.275C439.376,156.983 454.381,164.57 457.601,167.374C460.935,170.278 465.305,169.252 462.085,175.109C451.38,194.585 438.265,202.763 440.629,217.484C445.615,248.542 447.256,250.888 444.458,250.307C425.662,246.409 428.234,255.199 419.312,261.235C416.004,263.473 415.599,255.803 408.552,256.876C404.46,257.499 404.602,256.982 400.581,256.193C397.235,255.536 395.116,260.786 390.746,256.249C383.949,249.19 382.766,250.897 375.406,244.624C372.418,242.078 364.829,249.531 364.646,252.516C364.29,258.344 363.091,258.041 357.741,259.945C355.728,260.661 357.774,266.725 356.687,268.593C351.062,278.25 356.468,284.503 345.467,284.775C336.388,284.999 337.337,282.393 331.926,275.144C330.27,272.924 330.721,267.797 325.467,266.692C317.365,264.987 316.441,264.687 315.11,256.561C311.741,235.982 309.281,235.772 307.505,235.62C301.634,235.119 301.342,236.836 296.248,233.741C286.796,223.818 294.986,220.55 288.662,208.397C283.47,198.42 280.135,191.154 281.436,187.499C282.736,183.845 296.639,187.63 296.734,187.536C297.302,186.975 297.315,185.631 296.267,176.492L296.244,175.442C296.775,147.973 296.699,147.993 296.885,147.851C302.11,143.861 300.166,142.86 300.763,136.475Z" style="fill:rgb(185,185,185);"/>
        <path d="M113.611,11.285C115.548,12.123 115.344,12.074 125.644,17.207C144.475,26.591 143.883,27.394 162.717,37.082C219.357,66.221 218.59,69.713 247.519,72.093C254.277,72.649 294.875,74.583 294.311,77.607C291.966,90.176 302.702,111.007 298.728,135.529C298.003,141.976 300.112,143.063 295.676,145.885C293.134,147.502 292.414,147.959 294.733,183.529C295.023,187.966 284.679,182.96 280.437,186.222L279.302,188.566C279.756,200.024 281.87,199.22 287.062,209.197C293.386,221.35 284.929,224.351 294.382,234.274C294.189,235.769 294.382,234.274 294.382,234.274C287.39,248.117 278.316,252.699 271.321,256.666C271.221,256.167 270.152,251.386 268.698,252.86C268.022,253.546 267.957,256.673 264.932,258.106C262.147,252.751 266.37,250.709 260.278,245.733C259.621,245.197 259.883,245.214 259.364,244.529C259.446,244.274 263.547,231.484 257.693,241.618C257.221,242.435 257.2,242.147 256.518,242.879C252.381,240.959 249.489,243.128 245.514,230.496C245.265,229.706 246.567,225.763 242.359,224.956C232.783,223.12 227.377,224.417 225.169,211.543C224.133,205.503 223.328,205.61 224.538,199.512C225.481,194.756 223.708,195.14 220.484,194.81C217.42,194.496 215.38,183.667 215.257,189.373C215.067,198.156 209.436,188.345 209.187,187.911C208.284,188.173 207.381,188.434 206.478,188.695C201.793,180.661 204.316,178.589 196.354,173.786C191.315,170.745 188.771,161.683 188.436,160.491C192.307,158.436 187.696,158.472 187.518,158.474C176.896,149.665 185.374,143.808 176.375,137.669C170.029,133.34 175.269,129.282 169.39,122.588C160.792,112.797 167.392,102.074 162.37,97.649C157.994,93.794 159.809,92.868 157.13,87.673C146.991,68.013 149.594,67.05 148.375,65.593C145.707,62.405 151.241,61.646 148.791,58.06C147.444,56.09 146.583,60.996 145.216,58.907C145.067,58.679 144.043,57.115 142.463,56.913C141.821,56.831 136.009,56.087 134.467,55.694C125.865,53.5 129.445,48.483 121.509,44.558C120.556,44.157 119.604,43.755 118.651,43.353C112.672,39.175 113.541,38.58 109.129,32.674C112.54,21.757 105.656,19.575 113.611,11.285Z" style="fill:rgb(184,184,184);fill-opacity:0.99;"/>
        <path d="M531.304,151.832C536.137,154.104 544.172,151.089 553.555,176.477C561.276,197.366 564.554,195.387 572.156,205.808C574.892,209.56 573.698,209.847 573.737,214.472C569.826,218.722 569.045,219.262 564.799,216.264C558.829,213.034 556.424,222.529 556.205,223.395C553.625,233.581 546.049,226.505 540.689,235.606C534.804,245.596 547.332,240.942 548.383,243.575C555.44,261.243 518.254,258.547 531.66,273.36C539.493,282.015 534.236,284.714 540.533,293.478C548.193,304.139 556.589,307.219 558.305,307.848C570.375,312.276 536.289,302.957 539.758,318.466C541.444,326.005 540.832,325.863 540.539,333.532C534.864,333.069 534.941,333.264 534.457,333.214C534.175,332.967 530.937,330.125 530.937,330.125C526.646,324.454 526.502,323.985 519.484,323.88C517.779,323.213 517.866,323.331 517.779,323.213C509.534,312.034 485.865,307.723 481.393,313.021C480.937,313.501 480.482,313.981 480.027,314.46C479.598,315.271 475.716,322.607 474.504,324.51C458.991,322.137 453.155,308.393 454.48,304.282C455.819,303.652 455.683,303.697 456.455,302.512C451.983,293.473 459.203,292.511 459.211,283.469C459.221,273.282 465.02,266.609 450.863,254.376C447.944,251.853 448.982,251.458 448.216,247.598L447.973,246.341C441.926,211.6 441.037,211.361 442.357,209.402C470.818,167.154 468.381,165.631 471.43,162.432C485.303,147.882 481.307,135.504 495.519,137.347C519.803,140.496 523.287,135.079 530.571,147.465C532.128,150.111 525.14,152.558 529.504,152.518L531.304,151.832Z" style="fill:rgb(185,185,185);"/>
        <path d="M453.408,302.44C453.09,302.79 452.772,303.141 452.454,303.492C451.411,305.912 450.809,306.39 456.829,316.287C462.164,325.058 463.861,323.075 473.368,326.653C479.249,327.917 476.381,321.307 481.624,316.097L482.518,316.321C485.396,326.852 485.891,326.715 485.516,337.559C472.399,338.719 472.593,337.904 459.496,336.58C451.397,335.762 451.555,342.19 443.035,349.17C436.66,354.394 438.573,355.472 437.717,363.6C437.104,365.285 437.217,365.197 437.104,365.285C419.461,378.959 431.966,399.618 424.319,409.355C417.308,409.744 416.389,409.793 413.625,403.419C411.253,397.95 403.812,404.632 401.381,402.466C403.995,398.837 404.331,399.001 404.426,397.497C405.484,380.847 391.44,383.96 388.513,383.356C388.193,383.29 390.502,381.756 386.343,379.886C374.875,374.729 372.493,348.877 371.379,345.521C365.22,326.964 354.678,337.862 352.555,333.46C347.47,322.918 347.875,322.813 340.044,313.886C334.85,307.965 336.327,286.385 338.559,286.63C359.944,288.985 353.332,277.79 356.967,271.875C362.338,263.132 358.722,261.906 359.523,261.639C364.914,259.844 366.397,260.329 366.599,254.502C366.817,248.242 374.149,246.493 374.381,246.673C381.465,252.192 382.463,250.65 388.671,257.329C394.536,263.639 398.571,257.792 400.466,258.615C408.422,262.073 410.569,256.096 414.101,260.94C422.492,272.448 423.791,249.645 435.524,250.91C446.551,252.099 446.817,252.539 454.056,260.866C462.484,270.56 456.709,272.3 456.732,280.45C456.765,291.852 450.846,291.31 453.408,302.44Z" style="fill:rgb(185,185,185);"/>
        <path d="M682.96,561.563C687.336,557.369 687.334,551.984 687.754,550.649C688.036,549.753 690.182,547.881 696.479,558.51C703.738,570.765 708.022,565.893 715.34,568.953C716.287,571.744 716.227,571.624 716.604,574.516C713.926,581.065 712.208,581.327 715.683,587.404C721.028,596.749 734.541,585.667 736.486,584.545C740.396,596.386 748.036,596.304 749.42,598.575C753.094,604.604 781.6,603.061 781.6,603.061C781.6,603.061 788.44,601.314 788.492,602.496C782.47,622.567 777.915,622.504 782.334,635.557C783.239,638.232 782.675,638.249 782.792,639.175C782.899,639.392 779.682,642.84 778.757,642.82C776.2,642.764 775.234,640.022 767.453,638.838C761.605,637.949 761.255,638.797 759.153,636.509C760.499,635.288 760.448,635.584 762.396,635.238C762.636,634.757 762.876,634.277 763.117,633.796C761.337,633.098 760.765,631.499 757.43,634.359C755.523,634.745 754.99,635.374 754.483,633.504C753.338,629.278 750.519,629.359 749.409,633.47C748.629,636.359 752.052,634.548 752.444,634.845C760.345,640.817 741.913,638.519 738.667,641.689C737.408,642.919 731.011,649.166 719.464,652.42C703.943,656.795 703.612,666.471 676.31,654.949C656.128,646.432 653.225,654.683 643.411,646.609C634.004,638.869 632.756,641.654 624.222,638.918C624.427,638.615 623.801,638.262 626.851,634.988C631.716,629.601 646.138,621.828 638.399,610.568C636.798,608.239 628.459,602.383 628.257,594.519C627.929,581.775 627.958,581.977 627.893,581.74C627.725,578.702 628.554,579.117 629.523,577.512C636.908,575.404 636.93,578.089 644.512,577.554C644.648,577.459 647.242,576.717 645.732,573.391C642.806,566.945 646.815,566.751 649.332,564.672L649.733,565.238C650.94,569.237 651.116,568.946 653.791,572.39C655.472,573.695 655.659,573.603 657.35,572.411L658.551,571.542C668.231,571.355 678.036,572.968 682.291,563.315L682.96,561.563Z" style="fill:rgb(184,184,184);fill-opacity:0.99;"/>
        <path d="M580.496,219.401C589.074,219.854 584.155,224.557 587.205,232.617C587.416,233.177 591.087,251.791 597.567,258.442C599.201,260.119 598.837,264.274 601.388,264.774C612.11,266.878 610.932,270.011 621.546,272.275C627.355,273.515 625.962,277.126 634.454,277.951C641.259,278.612 642.219,275.698 651.297,282.807C655.692,286.248 655.799,283.337 657.829,281.884C673.346,270.776 651.038,314.784 648.369,329.453C647.178,335.998 647.71,335.871 645.824,342.441C645.62,349.06 644.855,348.881 644.834,355.519C641.036,357.419 642.802,358.726 642.835,359.575C642.939,374.605 642.83,374.418 644.895,389.445C646.287,399.57 643.851,399.19 639.717,408.483C640.495,409.509 641.273,410.535 642.052,411.561C642.375,413.874 642.698,416.187 643.021,418.5C642.43,419.277 643.23,421.274 640.17,419.926C640.881,413.609 630.411,411.471 629.52,411.673C623.035,413.14 623.128,413.206 622.563,413.289L621.497,413.518C616.193,413.572 597.328,414.79 595.673,411.385C593.369,406.648 594.219,405.832 589.366,403.598C587.46,402.775 587.466,402.788 585.653,403.577C576.643,405.372 569.725,398.544 569.685,398.483L569.63,397.471C572.877,389.877 570.937,389.598 565.392,383.541C566.386,380.251 566.245,379.904 569.46,379.365C575.177,378.408 565.18,365.97 580.503,365.425C581.872,365.377 590.606,363.381 585.718,355.37C581.672,348.738 583.896,348.298 583.264,340.54C583.001,337.313 580.955,338.102 580.941,334.686C598.204,326.753 598.404,317.36 600.51,316.525C602.734,315.645 613.114,313.362 621.868,301.759C622.452,299.414 621.498,299.827 620.461,298.757C615.297,295.534 618.064,293.213 616.784,283.485C616.428,280.771 617.052,277.046 606.501,279.593C601.654,275.735 598.81,278.545 597.398,272.509C596.47,268.543 591.314,271.239 590.505,264.501C589.746,258.188 589.347,257.924 583.635,255.368C579.874,253.684 586.37,250.075 581.548,247.297C579.794,246.287 581.785,233.82 576.163,227.772C573.916,225.354 573.667,225.683 573.566,225.422C573.09,224.188 574.969,224.677 574.538,223.561C576.524,222.174 578.51,220.788 580.496,219.401ZM645.734,320.43C644.368,314.172 647.942,313.709 644.883,308.3C643.939,306.633 645.618,302.688 648.12,306.79C651.423,312.208 650.409,302.655 651.689,301.926C652.152,301.663 655.647,301.213 652.542,308.521C647.42,320.573 649.175,320.927 645.171,333.517C644.629,333.299 644.087,333.081 643.546,332.864C644.026,331.689 643.738,331.714 644.268,330.499C644.544,325.62 643.777,325.662 645.521,321.505C645.592,321.147 645.663,320.788 645.734,320.43ZM643.546,332.864C644.087,333.081 644.629,333.299 645.171,333.517C644.784,339.303 644.284,339.173 643.499,340.214C642.179,339.51 642.655,339.207 641.763,333.548L643.546,332.864ZM644.268,330.499C643.738,331.714 644.026,331.689 643.546,332.864L641.763,333.548C640.777,331.064 641.894,331.312 644.268,330.499Z" style="fill:rgb(185,185,185);fill-opacity:0.99;"/>
        <path d="M439.224,401.139C439.875,399.463 441.736,399.458 440.183,398.67C434.434,395.754 435.189,400.433 436.392,405.563C436.407,405.63 435.556,412.781 435.399,413.46C435.719,415.653 436.428,415.574 438.24,414.31C441.525,409.279 440.867,409.194 442.498,405.401C443.288,405.951 444.419,406.738 442.175,417.423C442.208,418.123 442.564,425.478 450.146,421.036C453.635,418.991 449.71,408.746 460.302,412.947C460.778,413.136 461.355,418.69 456.473,426.815C452.17,427.43 450.96,426.678 451.365,428.553C451.417,428.794 453.696,430.031 453.907,430.145C450.367,431.575 450.348,431.001 446.561,431.703C445.714,431.86 436.368,451.792 435.537,453.566C430.196,464.294 468.185,459.191 470.376,458.176C484.673,451.551 476.374,442.509 475.43,441.481C484.846,434.284 488.143,447.484 497.176,440.045C497.868,439.476 503.236,435.055 505.591,432.65C505.921,432.097 505.95,432.176 508.245,430.098C516.457,435.415 517.467,434.87 518.235,434.456C518.399,435.104 518.563,435.752 518.727,436.401C518.375,437.114 518.023,437.828 517.671,438.541C511.595,451.567 513.643,453.012 513.619,453.484C513.522,455.365 509.029,456.951 507.548,459.528C499.698,473.182 496.94,472.315 497.992,476.402C499.384,481.81 499.553,481.968 496.614,486.734C487.693,490.328 486.962,487.711 478.324,492.214C477.629,492.576 454.25,497.292 460.907,504.073C461.005,504.172 460.907,504.073 462.508,504.74C468.246,506.183 468.236,505.828 473.471,508.526C473.133,514.618 473.203,514.484 474.518,520.496C475.934,522.645 476.101,522.348 478.517,522.759C484.992,526.364 470.707,531.619 466.624,534.664C458.677,540.591 458.063,538.969 448.397,540.637C446.508,528 452.387,520.925 439.493,521.533C425.926,522.172 426.826,525.775 413.518,528.347C413.194,528.41 413.217,528.4 409.448,529.064C394.563,530.978 367.485,485.265 376.675,481.847C383.062,479.471 384.975,481.246 388.527,475.511L389.165,475.289C413.006,453.013 415.866,471.469 420.456,471.785C422.384,471.918 421.335,470.033 425.455,462.472C425.868,461.715 425.663,461.743 424.505,452.519C440.391,455.161 428.754,443.422 429.15,438.339C431.179,428.19 422.037,429.387 424.392,419.469C426.213,411.8 424.577,408.999 432.501,408.506C435.266,408.334 433.898,407.179 433.51,406.399C435.108,403.013 429.274,391.769 441.405,396.826C444.289,398.028 442.194,399.509 441.564,402.375L440.295,401.676L439.224,401.139Z" style="fill:rgb(184,184,184);"/>
        <path d="M851.5,695.999L846.5,695.999C846.048,695.547 846.515,695.381 846.128,694.994C846.005,694.871 846.128,694.994 844.336,693.741C843.731,693.322 843.126,692.904 842.521,692.485C839.111,688.124 829.238,679.536 827.493,678.509C829.11,674.629 828.824,674.568 828.5,674.5C828.323,674.462 827.097,674.202 826.343,673.83C813.786,670.238 814.871,668.287 803.317,656.556C803.314,656.214 803.412,655.877 803.41,655.535C803.405,654.898 801.481,651.138 801.522,655.617C799.749,655.523 786.133,649.021 785.575,643.488C785.541,643.17 785.506,642.852 785.471,642.534C785.471,642.534 785.639,637.699 784.734,635.024C780.315,621.971 785.403,622.3 791.425,602.229C800.362,595.819 795.901,594.251 796.664,592.554C799.704,584.906 801.758,585.654 802.192,577.444C802.242,576.507 809.647,563.43 812.787,582.469C814.158,590.779 817.931,588.569 821.215,590.866C834.281,600.004 834.513,560.144 860.15,579.814C862.209,581.394 859.701,586.118 863.663,588.114C868.59,590.597 868,591.191 872.36,594.6C881.699,598.137 883.13,604.557 894.668,609.063C904.198,612.785 900.345,619.025 908.655,622.06C914.575,624.222 909.234,626.442 909.89,632.481C910.694,639.889 905.949,636.572 870.54,638.919C860.26,639.6 860.564,650.584 855.639,656.599C844.863,669.758 855.76,673.822 854.454,678.482C852.004,687.222 854.347,687.544 851.5,695.999Z" style="fill:rgb(185,185,185);"/>
        <path d="M40.5,0L73.5,0C76.597,1.117 76.641,1.015 114.52,3.359C119.895,3.692 113.643,9.345 112.518,10.505C111.887,10.944 106.472,14.712 107.329,18.598C108.825,25.386 108.299,25.252 107.341,32.08C105.739,34.281 106.743,34.316 108.576,36.442C114.034,42.771 102.159,60.706 107.726,66.289C113.584,72.164 105.105,93.288 111.348,102.62C116.79,110.753 114.981,111.756 115.721,112.152C127.164,118.267 123.999,121.597 135.147,131.864C139.511,135.882 136.848,159.535 139.51,148.514C140.691,143.622 143.629,151.261 144.184,151.819C150.17,157.824 145.9,162.593 151.388,164.754C161.913,168.898 158.556,182.644 157.635,183.651C138.605,180.76 138.682,181.449 119.543,179.38C117.013,179.106 116.872,179.152 115.877,176.743C118.081,172.433 114.795,171.95 116.664,167.612C121.065,157.391 113.778,158.626 109.247,147.596C108.709,146.286 107.643,147.095 98.814,133.305C92.303,123.134 73.151,114.321 72.316,107.531C71.859,103.818 71.471,104.037 70.262,100.594C67.548,92.866 72.879,91.793 68.415,84.584C68.196,80.491 67.756,80.435 67.473,80.6C67.223,80.745 67.059,80.84 65.457,83.59C61.443,79.306 68.032,72.344 59.676,61.366C57.299,58.243 62.19,52.567 51.893,40.174C51.648,39.879 48.344,29.368 49.62,28.674C49.825,28.562 54.875,30.915 54.1,28.547C53.622,27.089 50.752,28.707 45.043,11.632C43.036,5.63 41.8,6.317 40.5,0Z" style="fill:rgb(184,184,184);"/>
        <path d="M113.477,176.541C115.637,184.122 118.865,180.766 157.503,185.499C157.765,186.426 159.628,193.032 162.626,196.398C170.523,205.262 170.161,205.413 174.406,216.607C175.635,218.385 175.566,218.339 177.653,219.308C182.683,223.715 179.218,235.283 183.841,241.169C189.357,248.192 179.385,223.639 185.275,228.802C192.764,235.367 191.502,239.09 193.616,241.404C198.145,246.364 195.073,252.235 197.788,257.381C201.496,264.408 194.359,266.036 199.44,272.52C199.981,273.397 201.951,279.266 204.581,281.411C208.398,284.524 205.185,288.521 211.894,303.285C219.379,319.758 205.93,328.064 222.365,333.948C222.512,334 225.756,339.276 225.27,332.501C224.853,326.702 227.597,328.796 228.472,328.547C239.661,338.77 238.141,340.362 239.394,340.743C246.515,342.909 241.982,351.71 246.607,356.41C261.511,371.554 250.501,376.375 239.651,381.803C222.621,390.323 231.738,362.561 218.31,354.837C209.314,349.662 210.657,348.299 208.374,345.597C195.797,330.71 193.786,328.545 182.466,325.616C181.824,324.817 181.183,324.019 180.541,323.221C183.065,323.152 183.072,323.438 185.028,321.877C181.479,319.072 182.878,317.015 178.523,316.726C177.647,316.28 176.772,315.834 175.896,315.388C175.083,313.44 174.27,311.491 173.457,309.543C173.347,305.712 171.465,305.968 168.543,308.474C168.035,306.973 167.526,305.472 167.018,303.971C166.639,302.938 166.491,302.536 169.27,290.402L169.362,289.479C170.136,286.825 170.91,284.171 171.683,281.517C171.785,280.15 171.125,280.103 172.219,278.385C173.299,273.882 175.446,269.418 171.891,272.5C171.384,272.94 170.657,273.074 170.15,273.514C170.148,256.519 167.067,255.944 157.247,249.895C149.456,245.097 151.527,243.272 150.811,243.041C141.769,240.127 145.474,236.622 140.48,228.517C140.73,228.075 155.418,197.356 141.075,222.196C139.735,224.516 138.542,226.835 138.332,227.244C131.589,229.286 132.978,223.044 130.791,223.964C130.218,224.205 128.936,233.984 124.622,226.403C123.164,223.84 111.657,215.507 111.167,214.698C107.294,208.306 100.372,211.727 99.372,206.534C97.647,197.576 96.453,198 85.433,187.573C85.062,187.223 77.599,180.162 86.535,181.296C96.305,182.535 96.378,186.21 105.477,182.435C108.567,181.153 108.395,190.049 112.452,186.474C112.666,186.35 117.569,183.501 111.154,183.667C107.379,177.506 112.885,176.635 113.477,176.541Z" style="fill:rgb(185,185,185);fill-opacity:0.99;"/>
        <path d="M483.036,313.537C505.245,310.415 516.753,325.306 517.335,325.805C523.314,326.124 524.383,324.426 527.68,329.355C529.862,332.616 530.128,332.204 533.166,334.778C534.524,335.43 537.945,336.415 538.368,336.537C534.509,339.825 534.131,339.413 532.078,344.237C530.57,347.78 525.106,344.759 525.434,350.502C525.9,358.659 513.26,373.83 499.56,375.81C486.195,377.742 490.611,384.851 491.16,385.735C492.376,387.691 489.935,396.196 498.414,401.626C503.589,404.94 503.313,405.07 506.866,410.163C507.382,410.903 515.389,410.116 518.543,405.527C525.799,394.97 519.98,412.855 521.343,416.569C522.825,425.04 522.638,425.129 518.74,432.758C518.44,433.136 518.14,433.515 517.84,433.893C511.606,429.315 512.004,428.973 508.852,428.03C500.064,427.839 503.584,418.715 494.559,412.427C490.946,409.91 452.812,429.865 474.513,442.443C474.796,443.215 474.488,443.188 475.041,443.882C482.377,453.089 466.745,457.364 463.493,457.418C444.345,457.733 443.155,460.42 437.425,454.496C438.243,453.34 445.813,438.57 446.212,437.376C448.163,431.541 451.863,435.443 455.442,430.419L457.219,428.382C471.441,412.543 454.848,404.75 450.788,412.613C448.929,416.213 451.503,422.185 444.281,418.601C446.049,409.739 450.16,407.825 442.443,402.937L441.564,402.375C442.194,399.509 444.289,398.028 441.405,396.826C429.274,391.769 435.108,403.013 433.51,406.399C432.28,406.108 430.952,406.51 429.721,406.219C429.258,406.109 425.318,382.645 435.761,368.854C436.341,368.427 436.922,367.999 437.502,367.572C439.77,366.364 439.556,366.212 440.005,363.612C440.824,355.419 439.895,354.741 446.305,349.272C454.047,342.665 452.272,338.126 462.533,339.26C486.761,341.936 486.452,338.361 486.415,337.675C490.323,331.237 484.278,317.142 483.573,315.499L483.036,313.537Z" style="fill:rgb(185,185,185);"/>
        <path d="M643.021,418.5C643.35,420.759 643.278,420.708 644.742,422.319C644.975,424.631 645.186,424.403 647.543,430.488C650.155,437.265 649.403,437.438 653.78,443.374C654.086,443.771 655.637,445.781 657.107,448.684C658.042,450.799 659.232,454.194 659.401,454.678C659.551,455.699 659.473,458.102 662.884,455.48C664.044,461.384 664.682,470.472 674.583,480.417C687.137,493.027 690.258,501.772 691.633,503.399C699.303,512.475 692.92,516.128 701.561,524.435C702.35,525.194 712.367,537.483 715.715,539.127C714.899,540.505 712.421,541.143 715.717,543.387C717.088,544.208 716.954,544.302 718.489,544.443C718.924,544.653 725.309,549.602 723.545,543.039C729.588,544.313 729.472,544.383 735.488,543.358C739.714,542.638 744.677,548.72 745.69,549.155C753.041,552.317 752.249,553.285 757.234,559.639C761.617,565.226 765.28,563.614 774.511,562.702C775.027,564.664 775.067,564.631 775.088,564.804C775.75,567.333 776.186,569.917 776.849,572.446C779.598,582.941 803.14,588.994 787.5,600.577C785.522,600.652 783.544,600.727 781.566,600.802C772.443,600.788 752.821,601.146 752.479,599.523C750.985,592.439 741.279,597.754 739.812,583.466C738.442,582.115 738.246,581.07 735.21,583.362C729.457,585.773 730.521,587.907 724.298,589.006C712.922,591.014 718.528,575.019 718.598,572.498C718.19,571.177 717.781,569.857 717.372,568.536C713.379,562.939 703.467,569.296 697.978,556.268C696.128,551.88 687.702,542.14 685.419,552.517C684.438,556.978 681.995,559.026 681.507,559.435C677.73,556.179 677.333,557.665 672.552,557.756C668.665,557.831 670.472,553.121 666.535,551.397C659.123,548.152 667.061,545.449 665.885,537.764C665.576,535.751 680.655,531.417 672.481,528.547C667.551,526.816 658.514,528.412 665.742,510.612C668.701,503.325 672.218,500.911 670.345,499.682C663.816,495.399 662.52,492.686 657.481,498.486C654.693,501.695 645.434,490.918 655.605,486.628C655.706,486.585 655.605,486.628 656.629,485.715C661.053,479.615 653.369,480.908 651.168,473.554C650.919,472.723 647.702,466.522 641.545,478.56C632.609,474.878 622.443,497.937 622.747,484.516C622.784,482.887 625.927,477.915 624.439,476.555C623.345,475.553 627.135,472.104 627.605,471.936C629.644,471.205 629.451,473.079 631.543,472.668C632.435,472.493 636.983,462.435 633.354,459.678C627.859,455.503 624.467,458.277 623.813,451.48C623.217,445.282 618.513,445.031 622.564,439.534C622.994,438.949 623.919,437.695 623.4,430.498C624.012,429.627 623.892,429.74 625.668,426.563C626.446,424.398 626.208,424.463 627.635,422.709C631.387,417.892 619.327,414.95 624.556,414.906C627.651,414.879 627.348,413.428 630.549,413.687C631.464,413.76 631.876,413.794 640.17,419.926C643.23,421.274 642.43,419.277 643.021,418.5Z" style="fill:rgb(185,185,185);"/>
        <path d="M555.54,549.426C557.193,553.026 557.459,552.709 558.318,556.552C561.306,569.912 566.22,557.183 572.514,556.582C581.366,555.737 580.702,548.196 588.501,552.491C588.83,553.255 592.089,560.836 595.501,560.18C600.391,559.238 599.833,560.997 603.47,564.536C612.008,574.823 619.524,576.437 624.685,579.356C626.093,581.725 626.218,581.557 626.325,581.764C626.628,597.554 624.659,598.863 635.529,610.475C638.763,613.929 637.478,614.425 638.388,620.496L637.18,622.328C628.373,630.049 628.407,629.975 627.668,630.667C626.801,631.479 627.244,631.659 626.384,632.465C621.792,637.32 621.888,637.373 621.486,637.79C618.091,636.993 618.838,636.117 616.12,633.934C611.514,630.235 611.099,631.297 605.513,629.457C589.017,624.024 589.109,623.38 585.484,623.69C572.927,628.059 571.949,613.21 561.476,615.41C559.978,615.724 535.439,606.579 533.689,605.308C530.492,602.984 531.74,601.767 528.325,599.807C522.514,596.472 524.697,593.581 517.349,590.94C506.068,586.884 509.575,579.147 497.465,577.932C497.401,572.035 497.845,571.896 502.516,568.521C502.869,568.265 505.282,566.521 504.573,563.48C502.469,554.465 507.379,553.882 515.589,558.329C520.97,561.244 521.847,555.306 548.55,561.186C555.214,562.654 550.792,552.315 555.54,549.426Z" style="fill:rgb(184,184,184);"/>
        <path d="M575.542,215.234C577.178,216.206 577.178,215.861 578.558,217.477C573.222,221.922 572.486,222.839 572.045,223.388C571.826,226.093 571.124,226.218 572.424,227.57C584.743,240.377 574.204,245.585 579.382,248.681C584.038,251.466 577.673,255.781 582.533,257.262C591.522,260.002 584.692,266.021 590.665,270.223C594.138,272.667 594.646,272.243 595.884,276.439C597.198,280.891 599.933,277.368 605.423,281.568C612.193,281.097 611.963,281.001 612.533,280.976C617.725,280.743 611.042,297.084 619.484,300.509C618.739,303.858 609.232,311.862 601.597,313.811C593.078,315.985 597.488,322.623 592.333,325.15C591.331,325.641 588.847,326.859 580.519,332.554C574.681,335.455 581.524,337.082 581.1,342.388C580.488,350.071 579.996,350.326 584.05,356.793C590.357,366.853 571.818,358.364 569.628,370.521C569.347,372.078 569.304,373.671 569.064,375.235C568.542,378.634 566.652,376.403 564.774,377.857C563.393,378.927 563.6,382.329 563.625,382.729C560.706,382.548 560.646,381.852 558.174,383.358C552.155,385.795 553.224,381.628 553.218,380.498C553.142,367.43 553.558,367.38 548.872,355.326C548.798,355.134 548.831,355.285 548.5,346.5C548.306,341.372 547.062,341.899 543.516,336.494C540.374,327.635 544.491,327.111 541.875,318.136C538.577,306.821 565.292,315.043 561.442,307.524C561.032,306.724 560.49,307.746 551.504,302.293L549.981,301.182C547.701,295.632 540.976,292.212 540.525,288.498C537.846,266.4 529.619,269.149 530.777,267.724C539.667,256.784 551.746,260.462 551.421,246.514C551.263,239.755 549.111,240.205 542.46,240.805C541.355,240.904 536.76,235.307 552.397,231.134C561.515,228.701 554.588,220.623 563.53,217.778C569.322,222.461 570.521,220.827 575.542,215.234Z" style="fill:rgb(185,185,185);"/>
        <path d="M509.806,494.741C521.558,487.483 517.893,499.975 522.657,502.152C527.009,504.14 534.033,497.429 538.653,502.297C540.031,503.749 543.913,507.839 563.57,500.009C565.351,501.067 565.305,500.813 566.716,502.392C566.55,507.279 567.228,507.422 564.709,511.531C559.142,528.877 562.66,529.754 555.656,546.682C555.286,546.972 554.916,547.263 554.546,547.553C547.182,550.3 553.099,559.447 549.319,559.026C532.939,557.202 533.146,556.72 516.498,556.222L514.719,555.173C511.035,553.112 499.545,550.62 502.346,563.507C502.948,566.275 497.022,569.669 496.851,569.828C494.701,571.835 495.705,578.042 495.819,578.752C492.179,581.67 472.832,575.601 467.4,571.654C464.788,569.755 449.775,570.97 440.849,553.337C440.266,552.186 440.552,552.217 440.585,550.515C442.542,548.144 444.498,545.774 446.455,543.403L447.292,543.042C460.658,541.26 460.853,541.624 465.877,537.958C472.327,533.25 487.322,528.1 480.805,521.151C478.584,520.698 478.819,520.561 476.646,520.134C474.971,513.778 477.193,513.682 475.668,507.385C469.9,504.088 469.944,504.517 463.357,502.673C458.676,496.806 469.946,499.351 481.66,492.798C482.959,492.071 496.948,487.181 501.205,490.824C504.544,493.681 503.693,496.915 509.806,494.741Z" style="fill:rgb(185,185,185);"/>
        <path d="M295.754,236.684C297.15,237.071 297.095,236.816 298.522,237.451C304.212,239.984 307.274,234.69 309.035,240.587C314.593,259.208 308.739,265.503 324.444,268.694C329.026,269.625 327.071,272.287 330.795,277.308C342.867,293.584 327.276,302.886 339.05,315.907C352.809,331.122 348.901,338.315 356.445,337.088C378.169,333.557 364.369,370.381 385.261,381.834C391.194,385.086 379.851,386.976 382.604,405.559C378.294,406.382 379.071,404.374 375.88,401.425C375.552,400.218 375.653,400.246 375.29,399.714C372.608,395.544 371.652,397.566 371.718,397.88C372.158,399.976 372.709,399.394 374.505,400.313C369.778,402.476 367.302,396.021 364.532,390.471C363.19,388.478 361.847,386.486 360.505,384.493C359.308,384.077 358.678,384.033 359.18,385.379C359.404,385.726 361.974,389.715 361.974,389.715C362.062,390.376 360.19,390.112 360.278,390.772C359.584,389.707 352.838,379.343 351.302,377.668C344.443,370.193 345.364,369.725 337.118,355.731C334.163,350.716 329.455,353.124 330.665,347.494C331.514,343.543 325.998,347.44 313.821,335.183C306.1,327.412 318.068,332.659 318.402,332.379C326.094,325.954 300.21,333.341 303.657,320.511C303.752,320.294 306.175,310.272 301.368,318.629C300.797,317.475 300.226,316.321 299.655,315.167C299.237,314.228 298.818,313.29 298.4,312.351C299.747,311.557 306.085,312.208 301.413,309.623C277.405,296.34 280.451,286.697 278.331,290.311C275.239,295.581 266.2,290.083 272.133,287.02C273.69,286.216 273.167,283.911 271.53,284.603C255.429,291.409 256.25,271.262 264.602,260.589C270.677,256.984 269.495,264.33 270.456,264.586C271.297,264.81 271.713,264.472 271.588,258.533C278.583,254.566 288.762,250.526 295.754,236.684Z" style="fill:rgb(184,184,184);fill-opacity:0.99;"/>
        <path d="M540.491,337.451L541.504,337.486C549.107,347.366 543.773,349.437 549.198,360.662L550.251,362.51C551.691,372.26 547.249,391.44 559.475,384.642C566.173,385.969 572.507,388.186 567.663,396.592C567.557,398.966 567.172,398.9 568.332,400.782C569.983,402.058 581.261,408.453 586.516,405.327L588.432,405.169C590.698,407.042 590.942,406.672 592.058,408.749C599.093,421.846 603.525,413.511 620.633,416.18C621.68,417.16 625.312,420.101 625.724,420.435C624.796,423.254 624.439,422.884 623.629,425.525C622.883,426.782 622.138,428.04 621.392,429.298C618.387,433.935 623.334,435.388 619.619,439.613C615.837,443.915 622.62,446.301 618.105,450.039C617.084,452.698 617.526,452.609 617.48,455.383C604.078,453.985 603.531,453.291 598.318,443.605C593.361,434.395 591.648,450.136 585.62,447.244C580.518,444.795 579.668,440.927 576.656,445.585C570.756,454.709 565.053,432.99 550.321,445.217C546.576,448.326 539.719,438.639 535.457,437.86C530.866,437.02 530.871,437.516 526.501,435.499C523.376,434.092 522.789,435.875 520.315,433.608C521.619,431.861 527.628,425.034 522.762,414.573C529.513,398.787 518.474,400.201 517.897,401.598C515.519,407.36 514.733,407.155 508.525,407.742C507.49,407.84 508.606,406.372 498.757,399.182C491.677,394.015 496.731,390.387 491.987,383.211C488.486,377.917 503.885,381.198 514.289,371.263C530.634,355.654 527.516,353.562 527.585,349.494C527.599,348.694 530.606,351.799 534.953,342.718C535.217,342.166 535.153,342.299 540.491,337.451Z" style="fill:rgb(185,185,185);"/>
        <path d="M896.117,472.476C900.496,477.247 901.223,476.374 907.477,475.198C913.776,474.014 926.618,494.78 932.579,499.442C935.344,501.605 939.719,565.019 940.228,567.38L939.649,568.792C935.573,569.732 935.494,568.674 887.521,572.875C883.267,561.444 879.848,565.035 868.431,560.678C862.167,558.287 860.977,566.379 860.547,567.093C853.674,567.283 853.909,566.545 847.714,563.177C840.228,559.108 845.479,552.46 841.251,548.809C837.712,545.752 833.967,549.779 831.241,541.063C838.078,535.944 850.043,540.814 851.548,541.427C858.072,541.032 861.816,537.168 862.484,536.479C871.789,526.877 871.951,527.349 882.817,519.865C894.261,511.982 888.301,502.961 891.9,497.793C899.529,486.84 896.108,485.892 896.117,472.476Z" style="fill:rgb(184,184,184);fill-opacity:0.99;"/>
        <path d="M980.512,425.348C982.824,423.66 983.246,423.664 983.522,423.667C1002.498,423.854 1016.475,419.059 1019.215,430.614C1019.741,432.188 1020.266,433.763 1020.791,435.337C1019.441,437.843 1019.773,437.891 1020.77,440.589C1015.124,461.823 1007.954,459.729 1005.919,466.653C1004.928,470.023 1005.055,469.889 1002.699,472.658C1000.331,475.442 1001.705,486.352 1001.853,487.535C1000.083,488.462 1000.111,488.222 998.668,489.608C998.521,489.981 998.662,489.895 997.129,494.382C993.603,494.488 993.646,495.208 993.664,495.499C993.89,499.257 997.342,497.028 997.623,496.847C1000.036,495.859 999.546,495.255 1001.826,493.924C1006.876,490.974 1002.395,501.734 1002.135,502.357C1005.171,507.88 1003.544,509.722 1003.126,510.196C996.826,517.329 1001.413,525.372 995.267,547.411C992.867,556.014 992.027,542.766 988.352,540.766C978.496,535.405 990.634,526.913 986.455,524.57C981.817,521.97 984.336,538.195 974.666,541.905C965.884,545.274 963.965,570.892 955.518,564.472C948.865,559.414 951.565,569.248 947.545,569.733C936.665,571.046 942.288,564.426 941.219,553.528C936.295,503.295 933.388,502.555 936.392,499.415C942.602,492.924 943.506,494.269 950.806,488.909C993.601,457.481 998.489,456.282 995.118,431.31L995.389,430.174C995.714,430.101 1014.882,423.44 997.52,426.602C994.637,427.126 994.787,426.806 991.49,426.638C991.165,426.57 987.872,425.883 987.449,425.724C984.779,424.719 985.03,426.229 983.492,426.549C982.499,426.149 981.506,425.749 980.512,425.348ZM1000.395,504.177C1000.561,504.685 1002.278,509.966 997.416,510.155C996.882,510.175 992.123,507.76 1000.395,504.177Z" style="fill:rgb(184,184,184);fill-opacity:0.99;"/>
        <path d="M980.512,425.348C981.506,425.749 982.499,426.149 983.492,426.549C989.228,427.979 989.896,428.33 990.407,428.598C991.143,429.19 991.879,429.782 992.616,430.374L993.104,432.683C993.581,435.762 996.004,440.138 990.556,454.517C988.577,459.739 988.291,460.066 935.461,497.39C933.066,499.081 921.944,483.198 914.271,475.709C907.67,469.267 900.981,478.389 899.121,469.421C898.852,467.808 898.84,468.007 898.153,466.738C899.083,464.639 899.227,464.675 898.17,462.475C895.896,457.084 895.651,456.761 898.889,451.829C903.535,444.752 926.439,436.112 930.516,435.544C956.166,431.972 954.771,422.396 980.512,425.348Z" style="fill:rgb(185,185,185);"/>
        <path d="M643.301,481.434C643.488,480.853 647.135,469.514 649.786,477.415C651.263,481.816 653.6,480.143 655.519,484.498C640.524,489.095 653.638,507.066 659.487,499.488C662.605,495.448 663.474,497.761 667.666,500.437C668.883,501.213 662.515,509.564 660.701,519.513C658.495,531.602 678.233,529.798 670.501,532.504C661.792,535.552 663.989,537.835 660.775,546.556C658.432,552.913 665.211,550.191 668.257,557.622C670.918,564.111 675.097,556.835 680.287,561.534L680.516,562.495C672.99,573.745 667.03,566.372 655.518,570.672C653.217,568.509 653.522,568.517 651.97,565.684C650.9,563.586 651.004,563.357 648.667,562.855C644.138,565.259 640.653,566.649 644.026,575.426C628.147,571.944 628.408,575.793 627.524,576.57C626.846,576.871 626.168,577.172 625.49,577.474C622.776,575.652 609.952,570.458 605.642,563.577C611.01,560.52 610.961,560.513 611.439,560.276C613.527,559.237 615.232,562.28 616.57,558.493C617.151,555.841 618.211,552.935 618.384,552.462C619.027,550.7 617.111,550.676 618.354,544.457C618.434,543.822 619.216,537.615 619.224,536.5C619.301,526.772 616.814,524.948 621.53,523.579C622.524,524.535 623.518,525.49 624.512,526.446C627.039,524.555 624.907,524.266 622.486,522.504C619.852,520.242 618.697,522.047 618.334,520.681C616.841,515.057 624.653,518.476 626.381,517.285C626.824,516.98 628.167,516.053 632.448,514.386C632.593,514.208 637.429,498.836 637.173,497.53C636.508,494.135 632.032,493.849 635.219,492.219C640.854,489.338 642.982,482.464 643.301,481.434ZM626.197,528.378C628.31,527.326 628.069,528.425 629.908,530.073C635.537,535.118 637.107,529.557 639.491,529.778C643.298,530.131 642.696,528.236 646.437,527.3C653.108,525.632 644.632,524.92 640.89,519.275C638.27,515.321 642.464,518.756 647.427,521.636C658.059,527.807 646.116,530.011 646.066,530.059C642.839,533.205 641.716,530.62 638.604,532.648C630.372,538.012 627.058,529.458 626.197,528.378ZM634.604,514.837C639.461,513.88 638.609,517.431 637.528,517.162C635.388,516.631 634.696,517.119 634.604,514.837Z" style="fill:rgb(185,185,185);"/>
        <path d="M524.388,436.836C527.377,438.538 527.066,438.919 530.512,439.459C545.406,441.791 546.29,453.957 553.473,445.467C554.635,444.093 557.133,441.141 575.305,450.877C575.522,452.209 579.376,458.477 574.502,457.476C569.735,456.498 569.281,456.878 567.044,461.117C563.522,467.788 560.382,465.754 559.368,466.33C555.523,468.516 553.035,467.347 551.446,468.42C540.63,475.715 560.768,494.838 562.519,496.501L562.708,497.516C550.451,501.45 550.03,505.118 538.631,499.343C531.493,495.727 523.932,504.377 521.953,497.224C519.704,489.096 517.157,487.719 508.534,493.257C503.191,491.542 504.426,489.792 499.56,487.459C503.988,477.649 499.047,476.892 500.786,473.63C507.192,461.611 512.09,458.356 513.459,457.446C517.585,454.705 514.894,436.413 524.388,436.836Z" style="fill:rgb(185,185,185);"/>
        <path d="M375.011,404.491C378.209,408.23 378.534,408.138 383.496,407.473C386.751,405.671 381.294,385.573 391.5,385.507C409.188,385.393 398.614,403.368 399.298,404.767C404.384,407.458 408.555,401.126 411.139,403.869C415.173,408.151 413.516,412.241 424.522,411.479C420.586,423.033 420.854,423.819 427.137,431.614C427.834,432.479 427.162,438.099 427.095,438.659C426.267,445.904 435.722,450.9 427.475,450.898C427.075,450.898 427.188,450.793 422.499,450.499C421.764,454.899 422.429,454.728 424.062,458.77C424.224,459.173 420.787,470.044 418.864,468.119C416.262,465.515 406.851,453.094 388.349,473.79L387.492,473.514C384.633,471.752 378.79,471.557 382.883,466.833C389.652,459.021 389.508,458.86 391.089,448.462C392.146,441.515 383.062,442.094 382.74,433.624C382.895,433.427 387.293,427.819 382.501,430.503C381.427,431.105 380.759,430.37 380.703,430.365C380.091,428.336 375.557,413.316 375.011,404.491Z" style="fill:rgb(185,185,185);"/>
        <path d="M829.479,541.436C830.967,547.805 831.006,548.739 837.455,549.633C843.01,550.403 840.133,560.195 843.74,563.191C853.076,570.944 860.966,568.867 862.471,568.47C863.525,566.504 863.507,566.682 863.525,566.504C864.078,560.874 866.416,562.028 871.569,564.328C879.243,567.754 881.981,564.541 885.875,573.63C885.927,583.231 887.418,583.08 886.68,592.536C886.483,595.06 874.856,593.653 874.535,593.643C868.67,586.807 865.001,589.513 863.069,580.655C862.616,578.579 851.725,569.862 846.549,571.731C824.618,579.648 830.601,594.706 823.684,590.03C817.92,586.134 815.917,587.444 814.678,580.519C812.423,567.921 800.751,566.413 799.744,581.549C799.684,582.448 798.587,581.963 794.644,591.588C790.173,583.72 789.813,583.425 789.178,582.904C779.509,574.983 780.294,574.247 776.37,562.35C780.231,559.669 779.936,558.442 782.499,559.503C784.028,560.137 783.886,560.021 785.469,559.468C790.48,556.972 795.082,558.179 791.565,553.873C804.651,551.845 804.664,551.455 806.433,551.997C808.373,552.59 811.815,553.644 829.479,541.436Z" style="fill:rgb(185,185,185);"/>
        <path d="M619.649,451.534C623.998,449.231 619.956,458.423 626.553,459.276C637.593,460.704 630.56,470.484 628.916,470.056C624.512,468.909 620.447,475.746 620.832,476.34C623.226,480.042 620.508,480.159 620.598,484.5C620.945,501.233 633.516,479.297 641.003,480.624L640.961,481.281C639.216,490.369 628.819,490.436 631.932,494.114C636.888,499.967 633.177,500.564 631.802,507.565C629.565,518.951 625.623,515.461 620.245,514.662C617.162,503.721 611.295,510.552 607.464,506.535C607.176,500.528 605.026,500.315 599.792,502.992C595.676,505.096 594.957,509.148 592.21,504.663L591.853,503.356C588.513,493.795 585.587,496.776 576.249,492.65C575.985,492.272 575.721,491.894 575.457,491.516C575.843,490.852 576.229,490.188 576.615,489.524C577.855,481.195 579.404,482.03 579.72,481.854C589.414,476.44 587.195,474.468 593.172,462.33C594.648,461.061 594.702,461.421 596.503,461.677C600.263,462.21 604.018,454.345 604.498,454.497C610.981,456.54 610.733,457.016 617.497,457.617C619.161,457.302 619.279,457.334 619.544,455.482L619.65,454.445C619.65,453.474 619.649,452.504 619.649,451.534Z" style="fill:rgb(185,185,185);"/>
        <path d="M575.419,494.259C579.219,496.859 578.892,497.211 583.532,498.185C589.826,499.506 588.158,501.469 590.882,507.305C594.881,515.872 601.518,498.175 605.734,506.558L605.726,507.541C606.557,509.223 606.35,509.645 609.513,509.922C615.296,510.427 616.128,509.938 618.231,515.286C614.141,518.501 615.508,519.294 616.818,524.421L616.832,525.453C616.795,533.462 616.981,533.315 616.423,541.443C611.747,542.517 612.338,540.395 608.496,537.5C608.479,536.132 608.372,527.167 602.885,521.345C599.908,518.554 599.874,521.213 597.406,524.428C592.595,530.694 596.068,531.559 595.019,539.507C591.457,544.287 591.42,544.099 587.636,548.737C585.652,551.169 581.337,546.741 578.863,550.703C574.454,557.765 570.79,552.909 565.087,559.139C560.997,563.608 560.614,555.694 557.53,547.493C566.657,528.618 561.808,527.289 566.624,511.801C569.623,508.911 568.906,506.384 568.738,502.721C570.733,499.177 570.916,499.486 573.509,496.512C574.295,495.128 574.323,495.315 575.419,494.259Z" style="fill:rgb(185,185,185);"/>
        <path d="M594.486,443.464L595.514,443.408C599.768,452.308 606.413,454.877 597.399,459.175C595.743,459.965 595.683,458.216 593.171,459.241C588.193,463.392 586.531,475.672 582.264,478.105C573.54,483.081 576.073,485.1 572.226,494.472C569.165,498.183 569.536,500.909 565.429,498.505C564.679,496.702 564.723,496.859 563.586,495.245C543.907,473.802 551.568,470.319 553.703,469.894C561.654,468.312 562.724,468.299 563.52,468.29C568.361,468.231 568.667,458.299 571.427,458.875C572.225,459.042 584.274,461.556 577.204,450.48C580.865,440.463 588.096,455.204 590.706,449.628C592.293,446.239 591.661,445.934 594.486,443.464Z" style="fill:rgb(185,185,185);"/>
        <path d="M504.626,430.453C504.08,430.928 503.777,431.642 503.23,432.117C500.19,434.761 500.176,434.524 497.102,437.305C488.405,445.171 484.555,431.669 474.5,439.501C461.767,433.59 477.28,423.206 478.445,422.426C485.572,417.656 494.851,406.546 500.432,425.532C500.578,426.028 500.654,426.286 504.626,430.453Z" style="fill:rgb(185,185,185);"/>
        <path d="M445.281,523.689L446.349,525.482C446.473,533.239 446.54,533.055 445.606,540.58C445.202,541.21 444.798,541.84 444.394,542.47C442.757,544.505 441.121,546.54 439.484,548.575C432.171,546.558 434.111,542.224 426.489,541.798C421.869,541.541 419.853,537.098 419.563,536.461C419.173,535.599 418.704,536.531 408.406,532.557C415.752,527.332 420.576,532.452 429.64,524.684C431.69,522.927 444.029,523.619 445.281,523.689Z" style="fill:rgb(185,185,185);fill-opacity:0.99;"/>
        <path d="M597.539,538.532C602.235,538.687 602.013,538.589 606.618,539.024C611.608,542.213 610.671,544.115 616.448,544.532C615.176,551.411 615.868,551.401 614.492,558.186C606.578,556.413 606.187,563.852 603.549,561.383C599.855,557.926 600.106,555.567 595.589,557.726C594.956,558.029 595.501,557.04 589.417,551.497C590.424,546.976 592.731,548.236 597.272,539.352L597.539,538.532Z" style="fill:rgb(185,185,185);"/>
        <path d="M601.428,523.245C603.783,526.444 604.18,526.117 605.399,529.538C608.717,538.851 602.791,536.917 597.401,535.634C595.224,528.837 596.586,528.62 601.428,523.245Z" style="fill:rgb(204,204,204);"/>
    </g>
</svg>
